<?xml version="1.0" encoding="UTF-8"?>
<svg version="1.1" xmlns="http://www.w3.org/2000/svg" width="1836" height="1820">
<path d="M0 0 C0.75790833 0.04620483 1.51581665 0.09240967 2.29669189 0.14001465 C42.13122286 2.61781897 81.92411318 9.01079428 121 17 C121.7917865 17.16179749 122.583573 17.32359497 123.39935303 17.49029541 C184.41035464 30.03334103 245.34402203 48.97313658 302 75 C303.04881348 75.4758252 304.09762695 75.95165039 305.17822266 76.44189453 C330.79295213 88.06809649 355.94745499 100.40592657 380.31835938 114.47119141 C385.58737767 117.47506909 390.9267483 120.35427982 396.27001953 123.22363281 C400.95518712 125.76898353 405.37134765 128.549419 409.77783203 131.54931641 C411.85056151 132.90244304 413.94004081 134.0858615 416.125 135.24609375 C423.05759984 139.01727187 429.49099749 143.61472371 436 148.0625 C437.40081852 149.01660884 438.80169784 149.97062844 440.20263672 150.92456055 C444.14026497 153.60885311 448.07145245 156.30243995 452 159 C452.91040039 159.62455078 453.82080078 160.24910156 454.75878906 160.89257812 C465.99505394 168.63026792 476.83677595 176.86769354 487.64550781 185.18896484 C489.70506511 186.77314112 491.76892053 188.35136075 493.8359375 189.92578125 C500.67656692 195.14346099 507.36639976 200.52218077 514 206 C515.77075782 207.43759302 517.54159226 208.87509167 519.3125 210.3125 C529.45545517 218.62828452 539.33114656 227.16625334 548.85058594 236.19213867 C551.64136427 238.83278019 554.43734735 241.38310195 557.4375 243.78515625 C558.283125 244.51605469 559.12875 245.24695313 560 246 C560 246.66 560 247.32 560 248 C560.59423264 248.26924286 561.18846527 248.53848572 561.80070496 248.81588745 C564.00126803 250.00068272 565.43198189 251.18425438 567.1887207 252.94580078 C568.08534172 253.83780685 568.08534172 253.83780685 569.00007629 254.74783325 C569.63555893 255.3905014 570.27104156 256.03316956 570.92578125 256.6953125 C571.59159714 257.36158661 572.25741302 258.02786072 572.94340515 258.71432495 C574.35193182 260.12587061 575.75802933 261.53984381 577.16186523 262.95605469 C579.28911149 265.10141236 581.42410443 267.23880434 583.56054688 269.375 C584.93276149 270.75213618 586.30452063 272.1297264 587.67578125 273.5078125 C588.30519119 274.13833527 588.93460114 274.76885803 589.58308411 275.41848755 C593.33809405 279.21295115 596.91260665 283.116019 600.38444519 287.17160034 C602.02270941 289.02570131 603.73369771 290.76815111 605.5 292.5 C608.53594925 295.48872337 611.34508659 298.61706479 614.125 301.84375 C616.17359094 304.19962958 618.27203002 306.5050746 620.375 308.8125 C624.29377459 313.15564274 628.02139902 317.6238285 631.69921875 322.171875 C634.01581013 325.01943385 636.37973645 327.82203891 638.75 330.625 C644.55108484 337.5700876 650.00044804 344.77257998 655.46435547 351.98388672 C656.84117775 353.79148583 658.23010753 355.58829319 659.62890625 357.37890625 C665.84024001 365.34496672 671.67987154 373.53107681 677.46337891 381.81054688 C678.97906839 383.97017561 680.50834341 386.11942012 682.04296875 388.265625 C688.48273316 397.2837904 694.65100024 406.43598475 700.59375 415.7890625 C702.04569948 418.07184974 703.50693153 420.34852229 704.96875 422.625 C716.48047873 440.61951266 726.91512996 459.17425206 737 478 C737.712771 479.32862061 737.712771 479.32862061 738.43994141 480.68408203 C771.75950215 543.03681063 796.95983947 608.55331349 815.40161133 676.7868042 C815.9513014 678.81988374 816.50540063 680.85170597 817.06054688 682.88330078 C832.48190079 739.83035567 841.17164414 800.1126149 844 859 C844.05639648 860.1643457 844.11279297 861.32869141 844.17089844 862.52832031 C848.23400743 951.26758242 840.07628866 1040.61147544 754.15576172 1304.71191406 C752.83915445 1307.31842935 751.54563496 1309.93575521 750.25390625 1312.5546875 C739.05736859 1335.21769256 726.78543289 1357.19747233 714 1379 C713.29157959 1380.21284668 713.29157959 1380.21284668 712.56884766 1381.45019531 C703.77330417 1396.43666436 693.85609462 1410.70029525 684 1425 C683.41541016 1425.85045898 682.83082031 1426.70091797 682.22851562 1427.57714844 C674.43983763 1438.87903816 666.16563756 1449.7930293 657.79345703 1460.66748047 C656.26107308 1462.66045573 654.73546434 1464.65820448 653.21484375 1466.66015625 C642.93242871 1480.15269111 632.11559913 1493.18865399 621 1506 C620.36707031 1506.73476562 619.73414063 1507.46953125 619.08203125 1508.2265625 C614.33639691 1513.70489573 609.4299266 1519.03672797 604.51123047 1524.359375 C603.04382911 1525.95241816 601.58590705 1527.55369714 600.12890625 1529.15625 C592.0305268 1538.00416721 583.59627614 1546.51153008 575.125 1555 C574.5371875 1555.5904007 573.949375 1556.18080139 573.34375 1556.78909302 C561.73187733 1568.44126219 561.73187733 1568.44126219 555.63037109 1573.58398438 C553.83271406 1575.14529177 552.1667502 1576.8003648 550.5 1578.5 C547.51127663 1581.53594925 544.38293521 1584.34508659 541.15625 1587.125 C538.80037042 1589.17359094 536.4949254 1591.27203002 534.1875 1593.375 C529.86874343 1597.27241447 525.42237949 1600.97300355 520.8984375 1604.62890625 C518.37049623 1606.69691211 515.88569003 1608.80664124 513.41137695 1610.93823242 C506.79025531 1616.62922246 499.9184873 1621.90446614 492.90234375 1627.09765625 C489.41353088 1629.68041667 485.98475039 1632.32970475 482.5625 1635 C475.60738464 1640.39400614 468.40348714 1645.4241169 461.18945312 1650.46337891 C459.02982439 1651.97906839 456.88057988 1653.50834341 454.734375 1655.04296875 C445.7162096 1661.48273316 436.56401525 1667.65100024 427.2109375 1673.59375 C424.92815026 1675.04569948 422.65147771 1676.50693153 420.375 1677.96875 C391.42825283 1696.48701206 360.99797162 1713.34724638 329.81567383 1727.7956543 C325.25761489 1729.90862316 320.76149506 1732.12039436 316.27734375 1734.38671875 C267.06008111 1759.1503784 213.18240169 1776.13693188 160 1790 C158.16767822 1790.48025635 158.16767822 1790.48025635 156.29833984 1790.97021484 C61.54524512 1815.52517257 -37.46989575 1822.06852068 -187 1812 C-187.91807434 1811.88569641 -188.83614868 1811.77139282 -189.78204346 1811.65362549 C-281.25849176 1800.17701187 -370.92469411 1776.11495537 -615 1645 C-615.75345703 1644.45472656 -616.50691406 1643.90945313 -617.28320312 1643.34765625 C-626.85278585 1636.41183277 -636.25864679 1629.32044341 -645.4375 1621.875 C-648.43238416 1619.44618186 -651.46616051 1617.0721179 -654.51318359 1614.70922852 C-660.06589893 1610.39890498 -665.38822114 1605.95328316 -670.5625 1601.1875 C-673.2003741 1598.82017709 -675.92584874 1596.59632819 -678.6875 1594.375 C-682.46392007 1591.3199186 -685.9532292 1588.17135687 -689.32421875 1584.6796875 C-691.14344456 1582.85622107 -693.04767911 1581.17981721 -695 1579.5 C-698.20608254 1576.73783658 -701.19110931 1573.83480166 -704.15258789 1570.81469727 C-705.80698137 1569.18960057 -707.50110244 1567.70334661 -709.27734375 1566.21484375 C-715.48683329 1560.81385917 -721.22934167 1554.91935927 -727.03637695 1549.09399414 C-729.05764268 1547.0673702 -731.08419574 1545.04614453 -733.11132812 1543.02539062 C-744.48985298 1531.65273587 -744.48985298 1531.65273587 -749.5065918 1525.73852539 C-752.33871457 1522.44155853 -755.37962224 1519.33544172 -758.375 1516.1875 C-763.41570135 1510.84981465 -768.25746448 1505.43983857 -772.8359375 1499.6953125 C-774.84045435 1497.19871209 -776.89342685 1494.75746193 -778.97436523 1492.32495117 C-785.19981262 1485.04691812 -791.15429837 1477.5853454 -797 1470 C-797.60505371 1469.21560547 -798.21010742 1468.43121094 -798.83349609 1467.62304688 C-803.59207995 1461.44269824 -808.31231289 1455.23428868 -813 1449 C-813.53818359 1448.28457031 -814.07636719 1447.56914063 -814.63085938 1446.83203125 C-826.4344455 1431.04301696 -837.19073035 1414.47796102 -848 1398 C-848.40364777 1397.38467407 -848.80729553 1396.76934814 -849.22317505 1396.13537598 C-854.55387795 1387.98589993 -859.60863916 1379.70875623 -864.4375 1371.25 C-865.08581787 1370.11876709 -865.73413574 1368.98753418 -866.40209961 1367.82202148 C-868.27325064 1364.55093611 -870.13787573 1361.27623043 -872 1358 C-872.47083008 1357.1745166 -872.94166016 1356.3490332 -873.42675781 1355.49853516 C-884.78507684 1335.54059583 -895.25178555 1315.07077052 -904.94775391 1294.25732422 C-906.17621048 1291.6219856 -907.41810922 1288.99316028 -908.6628418 1286.36547852 C-915.63760674 1271.48326628 -922.18875097 1256.47672271 -928.0625 1241.125 C-928.53497665 1239.89277206 -928.53497665 1239.89277206 -929.01699829 1238.63565063 C-961.27639949 1154.2578793 -982.44715388 1065.80751331 -972.40307617 724.05371094 C-972.02558857 722.13037619 -971.65417425 720.20585226 -971.28320312 718.28125 C-964.73852004 684.59035967 -954.71669987 651.57400242 -944 619 C-943.68159149 618.03187378 -943.68159149 618.03187378 -943.35675049 617.04418945 C-914.73281751 530.25419674 -871.75903674 447.83881277 -818 374 C-817.17411377 372.86183838 -817.17411377 372.86183838 -816.33154297 371.70068359 C-808.76762522 361.29534921 -801.05583066 351.02953693 -793 341 C-792.49114258 340.36497559 -791.98228516 339.72995117 -791.45800781 339.07568359 C-780.94173289 325.97349183 -770.14373988 313.19681126 -758.6875 300.90625 C-756.47462914 298.51326175 -754.31449481 296.09383326 -752.1875 293.625 C-749.53076302 290.55013251 -746.71784039 287.69450876 -743.81787109 284.85009766 C-742.17033695 283.17335662 -740.65741812 281.4536995 -739.14453125 279.65625 C-734.04917324 273.79827549 -728.53379765 268.34776624 -723.04614258 262.86083984 C-721.16914531 260.98162361 -719.30033111 259.09450377 -717.43164062 257.20703125 C-716.2400716 256.01253356 -715.04803171 254.81850536 -713.85546875 253.625 C-713.29715866 253.05950439 -712.73884857 252.49400879 -712.16362 251.91137695 C-708.22886447 248 -708.22886447 248 -706 248 C-705.67 247.01 -705.34 246.02 -705 245 C-703.42700195 243.43505859 -703.42700195 243.43505859 -701.42578125 241.7734375 C-698.58353554 239.36218028 -695.80683817 236.92003254 -693.10546875 234.3515625 C-692.46585205 233.74344727 -691.82623535 233.13533203 -691.16723633 232.50878906 C-690.51392334 231.88713867 -689.86061035 231.26548828 -689.1875 230.625 C-683.84981465 225.58429865 -678.43983857 220.74253552 -672.6953125 216.1640625 C-670.19871209 214.15954565 -667.75746193 212.10657315 -665.32495117 210.02563477 C-658.04691812 203.80018738 -650.5853454 197.84570163 -643 192 C-642.21560547 191.39494629 -641.43121094 190.78989258 -640.62304688 190.16650391 C-634.44269824 185.40792005 -628.23428868 180.68768711 -622 176 C-621.28457031 175.46181641 -620.56914063 174.92363281 -619.83203125 174.36914062 C-584.8767864 148.2372216 -547.42194805 125.5984521 -509 105 C-508.11715332 104.52626953 -507.23430664 104.05253906 -506.32470703 103.56445312 C-427.37095322 61.3747617 -342.50475371 31.62686749 0 0 Z M-215.69921875 71.01171875 C-216.38530212 71.13560471 -217.0713855 71.25949066 -217.77825928 71.38713074 C-220.08356799 71.80945969 -222.38565309 72.24670769 -224.6875 72.6875 C-225.48866241 72.83938782 -226.28982483 72.99127563 -227.11526489 73.14776611 C-312.50487486 89.47318975 -396.2368363 119.56972702 -486.45507812 169.52246094 C-488.91440187 170.95030316 -491.38444516 172.35723178 -493.859375 173.7578125 C-518.47494083 187.7407544 -541.86864509 203.63056541 -564.70996094 220.32763672 C-567.06578084 222.04803824 -569.42733326 223.76037866 -571.7890625 225.47265625 C-581.5406364 232.57016515 -591.00978797 239.92761128 -600.30615234 247.61035156 C-602.63703536 249.52262976 -605.00576944 251.38556662 -607.375 253.25 C-611.55174892 256.57605882 -615.49337065 260.11766974 -619.43359375 263.71875 C-622.05705864 266.05071879 -624.75783743 268.24685536 -627.5 270.4375 C-632.11854224 274.17011594 -636.3044578 278.16610846 -640.41796875 282.4453125 C-642.43354289 284.43954168 -644.45847528 286.275291 -646.60839844 288.11499023 C-651.21296225 292.12931403 -655.53517219 296.39099252 -659.84765625 300.71484375 C-660.66318466 301.52941544 -661.47871307 302.34398712 -662.31895447 303.1832428 C-664.03198008 304.89559193 -665.74375965 306.60918842 -667.4543457 308.32397461 C-670.05503552 310.93002015 -672.66101956 313.53068522 -675.26757812 316.13085938 C-676.94042486 317.80436699 -678.61296134 319.47818482 -680.28515625 321.15234375 C-681.05513443 321.9202977 -681.82511261 322.68825165 -682.61842346 323.47947693 C-686.73829631 327.617032 -690.70032772 331.8356559 -694.50428772 336.26617432 C-696.72870847 338.84471691 -699.05390148 341.32062996 -701.375 343.8125 C-705.66751208 348.45904128 -709.73338031 353.2409924 -713.69921875 358.171875 C-715.73813967 360.67812075 -717.82376464 363.13580001 -719.93286133 365.58300781 C-724.97623218 371.44834727 -729.70542008 377.48765865 -734.30566406 383.70581055 C-736.98703149 387.32668853 -739.69899657 390.91529177 -742.484375 394.45703125 C-743.08016357 395.2147583 -743.67595215 395.97248535 -744.28979492 396.75317383 C-745.41093163 398.17416558 -746.53564445 399.59234947 -747.6652832 401.0065918 C-753.4920253 408.40176816 -758.71921088 416.21182222 -764 424 C-764.45492828 424.66954712 -764.90985657 425.33909424 -765.37857056 426.02893066 C-777.15035273 443.36409479 -788.67619786 460.75243075 -799 479 C-800.12236263 480.95965444 -801.2447597 482.91928914 -802.3671875 484.87890625 C-811.36575956 500.68434889 -819.83086061 516.75360647 -828 533 C-828.45082947 533.89652283 -828.45082947 533.89652283 -828.9107666 534.81115723 C-843.8759427 564.63830132 -856.25490461 595.23343944 -867.21289062 626.74017334 C-867.98577466 628.9591584 -868.76386734 631.17625775 -869.54296875 633.39306641 C-882.41112298 670.10960202 -892.42166703 707.5010491 -899.57611084 745.74133301 C-899.99048934 747.94932304 -900.41152318 750.15594213 -900.83447266 752.36230469 C-912.12927273 811.50239976 -915.56871411 870.87292844 -915 931 C-914.9937561 931.692005 -914.98751221 932.38401001 -914.9810791 933.09698486 C-914.04536178 1026.22469806 -893.24183064 1120.37092898 -844 1249 C-843.59910156 1249.93021973 -843.19820312 1250.86043945 -842.78515625 1251.81884766 C-838.89703827 1260.83174035 -834.76726123 1269.68717953 -830.3125 1278.43359375 C-828.53135911 1281.93169741 -826.79165238 1285.44856851 -825.0625 1288.97265625 C-818.3192105 1302.67466593 -811.19933765 1316.0658484 -803.55566406 1329.28564453 C-802.06056311 1331.89432821 -800.59907058 1334.51872394 -799.1484375 1337.15234375 C-791.53823438 1350.88674178 -782.94421426 1363.87192297 -774.13037109 1376.8503418 C-772.01386411 1379.97950254 -769.92272425 1383.12439937 -767.8359375 1386.2734375 C-764.61443941 1391.11242916 -761.29919431 1395.86529288 -757.875 1400.5625 C-757.32714844 1401.31644043 -756.77929688 1402.07038086 -756.21484375 1402.84716797 C-755.06216749 1404.43144439 -753.90818588 1406.01477185 -752.75292969 1407.59716797 C-750.99985565 1410.00019787 -749.25380345 1412.408227 -747.5078125 1414.81640625 C-740.41651424 1424.55854636 -733.06520209 1434.01848402 -725.38964844 1443.30615234 C-723.47737024 1445.63703536 -721.61443338 1448.00576944 -719.75 1450.375 C-716.42394118 1454.55174892 -712.88233026 1458.49337065 -709.28125 1462.43359375 C-706.94928121 1465.05705864 -704.75314464 1467.75783743 -702.5625 1470.5 C-698.82988406 1475.11854224 -694.83389154 1479.3044578 -690.5546875 1483.41796875 C-688.56045832 1485.43354289 -686.724709 1487.45847528 -684.88500977 1489.60839844 C-680.87068597 1494.21296225 -676.60900748 1498.53517219 -672.28515625 1502.84765625 C-671.47058456 1503.66318466 -670.65601288 1504.47871307 -669.8167572 1505.31895447 C-668.10440807 1507.03198008 -666.39081158 1508.74375965 -664.67602539 1510.4543457 C-662.06997985 1513.05503552 -659.46931478 1515.66101956 -656.86914062 1518.26757812 C-655.19563301 1519.94042486 -653.52181518 1521.61296134 -651.84765625 1523.28515625 C-651.0797023 1524.05513443 -650.31174835 1524.82511261 -649.52052307 1525.61842346 C-645.382968 1529.73829631 -641.1643441 1533.70032772 -636.73382568 1537.50428772 C-634.15528309 1539.72870847 -631.67937004 1542.05390148 -629.1875 1544.375 C-624.61915242 1548.5907739 -619.93404592 1552.60491426 -615.08984375 1556.50390625 C-612.75388832 1558.39098023 -610.43631303 1560.29340728 -608.12890625 1562.21484375 C-598.27950708 1570.40946112 -588.25671482 1578.32164943 -578 1586 C-577.24992676 1586.56187012 -576.49985352 1587.12374023 -575.72705078 1587.70263672 C-540.4949568 1614.0246121 -503.79383567 1637.28088472 -465 1658 C-464.11376953 1658.47469727 -463.22753906 1658.94939453 -462.31445312 1659.43847656 C-424.78659225 1679.47591564 -386.42694379 1696.24283873 -346.25982666 1710.21289062 C-344.0408416 1710.98577466 -341.82374225 1711.76386734 -339.60693359 1712.54296875 C-317.74273548 1720.20647255 -295.62330566 1726.63789007 -273.23828125 1732.6015625 C-272.4366304 1732.81559219 -271.63497955 1733.02962189 -270.80903625 1733.25013733 C-266.96254787 1734.26448597 -263.10736791 1735.23860011 -259.23510742 1736.14990234 C-258.19419197 1736.39587662 -258.19419197 1736.39587662 -257.13224792 1736.64682007 C-254.5380849 1737.13617574 -254.5380849 1737.13617574 -250 1737 C-249.505 1514.25 -249.505 1514.25 -249 1287 C-219.795 1286.505 -219.795 1286.505 -190 1286 C-190 1075.79 -190 865.58 -190 649 C-312.43 648.67 -434.86 648.34 -561 648 C-561.4375 482.375 -561.4375 482.375 -561.56811523 430.01708984 C-561.61135332 414.57197383 -561.61135332 414.57197383 -561.65589905 399.12686157 C-561.67575399 392.23046248 -561.69291739 385.33406305 -561.70826721 378.43765259 C-561.72597043 370.48804388 -561.74706126 362.53845286 -561.77237374 354.5888646 C-561.78522029 350.52057079 -561.79652117 346.45228904 -561.80346954 342.38398051 C-561.80977961 338.70641356 -561.82060012 335.0288888 -561.83504486 331.35134506 C-561.84156969 329.38926053 -561.84323776 327.42716171 -561.84474277 325.46506691 C-561.85021814 324.29626865 -561.85569351 323.1274704 -561.8613348 321.92325401 C-561.86399284 320.91699514 -561.86665089 319.91073626 -561.86938947 318.87398469 C-561.93274366 315.92545789 -561.93274366 315.92545789 -562.62840229 312.78677905 C-563 310 -563 310 -561.08422852 307.48828125 C-557.393627 304.51079287 -553.59682831 301.81588367 -549.65234375 299.1875 C-548.82402542 298.62932083 -547.99570709 298.07114166 -547.14228821 297.49604797 C-544.41119825 295.65824278 -541.674531 293.82894314 -538.9375 292 C-537.02357879 290.71536233 -535.10984474 289.43044577 -533.19628906 288.14526367 C-514.8867215 275.86459501 -496.47441481 263.73926219 -478.04597473 251.63801575 C-473.18492505 248.44367037 -468.33563731 245.23267043 -463.5 242 C-457.82486644 238.20611818 -452.12802405 234.44628231 -446.421875 230.69921875 C-427.70771009 218.40660936 -409.04132642 206.05211295 -390.5 193.5 C-371.1226666 180.38192678 -351.60620183 167.48262834 -332.04656982 154.63838196 C-327.18530289 151.44394299 -322.3358309 148.23279985 -317.5 145 C-311.82486639 141.20611815 -306.12801981 137.44628881 -300.421875 133.69921875 C-279.371518 119.87175777 -258.39510418 105.94540244 -237.55175781 91.80737305 C-227.11880444 84.73667448 -216.61253338 77.79839969 -206 71 C-209.73837545 69.75387485 -211.82243958 70.31098577 -215.69921875 71.01171875 Z M416 219 C415.67 360.57 415.34 502.14 415 648 C292.57 648.33 170.14 648.66 44 649 C44 859.21 44 1069.42 44 1286 C73.205 1286.495 73.205 1286.495 103 1287 C103.33 1435.5 103.66 1584 104 1737 C111.60504207 1736.17319943 111.60504207 1736.17319943 118.94921875 1734.6875 C120.56763672 1734.28881714 120.56763672 1734.28881714 122.21875 1733.88208008 C123.3634375 1733.59099365 124.508125 1733.29990723 125.6875 1733 C126.91082031 1732.69022217 128.13414063 1732.38044434 129.39453125 1732.0612793 C189.21862048 1716.66738974 246.80439164 1694.59780418 302 1667 C302.92613098 1666.53693451 302.92613098 1666.53693451 303.87097168 1666.06451416 C319.69992541 1658.13308186 335.10261202 1649.62853136 350.31591797 1640.57714844 C352.73635773 1639.15491441 355.17292026 1637.77369293 357.62890625 1636.4140625 C379.78487278 1624.09274397 400.66139774 1609.09320567 421 1594 C422.55847656 1592.84757812 422.55847656 1592.84757812 424.1484375 1591.671875 C427.11122768 1589.46368285 430.05726787 1587.23484568 433 1585 C434.30468361 1584.01692192 435.60937139 1583.03384937 436.9140625 1582.05078125 C467.0156094 1559.28809886 495.06503532 1534.13940281 521.70068359 1507.4296875 C524.02196315 1505.10298555 526.34862663 1502.78176172 528.67578125 1500.4609375 C530.18000867 1498.95605012 531.68392631 1497.45085303 533.1875 1495.9453125 C533.86989746 1495.26493927 534.55229492 1494.58456604 535.25537109 1493.88357544 C539.14097421 1489.9791807 542.8519351 1485.97341659 546.44433594 1481.79721069 C549.3606298 1478.42810638 552.42211501 1475.19179648 555.4609375 1471.93359375 C568.10832726 1458.3159016 579.81610679 1443.83428147 591 1429 C591.45552246 1428.39897461 591.91104492 1427.79794922 592.38037109 1427.17871094 C595.94703438 1422.47221106 599.47981802 1417.74133255 603 1413 C603.47711426 1412.36126953 603.95422852 1411.72253906 604.44580078 1411.06445312 C637.12489592 1367.19541229 665.13171744 1319.67427685 688.05908203 1270.03027344 C688.93390123 1268.14262516 689.82115453 1266.26158508 690.71484375 1264.3828125 C692.50472689 1260.60089471 694.26246441 1256.80618961 696 1253 C696.39413086 1252.13761719 696.78826172 1251.27523438 697.19433594 1250.38671875 C710.11860756 1221.95137621 720.46786105 1192.710843 730 1163 C730.20711609 1162.35649597 730.41423218 1161.71299194 730.62762451 1161.04998779 C754.27646864 1087.4310516 768.16422672 1008.40029063 769 931 C769.00988953 930.24128601 769.01977905 929.48257202 769.02996826 928.7008667 C769.93772386 859.03537913 763.18744175 791.18837983 749 723 C748.62174072 721.16574463 748.62174072 721.16574463 748.23583984 719.29443359 C731.60233541 639.73728446 699.96707725 560.73965371 659.46679688 490.56640625 C657.6708958 487.4241772 655.93407024 484.25212252 654.2019043 481.07446289 C643.36937434 461.25113111 630.84959441 442.55946374 618 424 C617.15042725 422.76926758 617.15042725 422.76926758 616.28369141 421.51367188 C609.36951687 411.5182037 602.14749932 401.79163801 594.69726562 392.18994141 C592.94323469 389.92675707 591.19777172 387.65714288 589.453125 385.38671875 C583.31116195 377.41514571 577.06608361 369.57434695 570.5078125 361.94140625 C568.14106999 359.1654606 565.84617969 356.34436807 563.5625 353.5 C558.9089209 347.78653099 553.94151683 342.41200703 548.89892578 337.04248047 C547.44941254 335.48338716 546.01257627 333.91249819 544.58154297 332.33642578 C536.36600691 323.30392826 527.79750556 314.6441352 519.15332031 306.02294922 C516.73646008 303.61149034 514.3250471 301.19467561 511.9140625 298.77734375 C510.35448749 297.21842898 508.7946026 295.65982414 507.234375 294.1015625 C506.52585388 293.39101715 505.81733276 292.6804718 505.08734131 291.94839478 C501.11153341 287.9909787 497.04130772 284.2025801 492.78704834 280.54550171 C489.4203073 277.63382668 486.18827105 274.57459694 482.93359375 271.5390625 C464.87296341 254.76530754 445.28756092 239.84109168 425.5 225.1875 C424.66807129 224.57003906 423.83614258 223.95257813 422.97900391 223.31640625 C422.21249512 222.75179687 421.44598633 222.1871875 420.65625 221.60546875 C419.97369141 221.10168701 419.29113281 220.59790527 418.58789062 220.07885742 C417.18209582 218.90633559 417.18209582 218.90633559 416 219 Z " fill="#004BFF" transform="translate(991,2)"/>
</svg>
